<svg xmlns="http://www.w3.org/2000/svg" xmlns:xlink="http://www.w3.org/1999/xlink" viewBox="0 0 185.38 185.38"><defs><style>.cls-1{fill:none;}.cls-17,.cls-2{fill:#fff;}.cls-3{fill:#00b0e5;}.cls-4{fill:#004c91;}.cls-5{fill:#d34454;}.cls-6{fill:#ffdfb5;}.cls-7{fill:#f3b4be;}.cls-8{fill:#ffba58;}.cls-9{fill:#b27756;}.cls-10{fill:#2bc093;}.cls-11{fill:#d44454;}.cls-12{fill:#ffbb58;}.cls-13{fill:#2bc194;}.cls-14{fill:#00b1e6;}.cls-15{fill:#004c92;}.cls-16{clip-path:url(#clip-path);}.cls-17{font-size:16.37px;font-family:Yorkten-ConMed, Yorkten;}.cls-18{letter-spacing:0em;}.cls-19{fill:#a5e1cb;}</style><clipPath id="clip-path"><polygon class="cls-1" points="113.74 96.99 110.22 86.5 112.56 86.39 116.11 96.59 116.11 73.84 69.35 73.84 69.35 112.34 116.11 112.34 116.11 97.15 113.74 96.99"/></clipPath></defs><g id="Layer_2" data-name="Layer 2"><g id="Layer_1-2" data-name="Layer 1"><rect class="cls-2" width="185.38" height="185.38"/><rect class="cls-3" x="64.55" y="4.27" width="56.34" height="56.34"/><rect class="cls-4" x="124.99" y="4.27" width="56.34" height="56.34"/><path class="cls-5" d="M172.31,34.11c0,10.85-15,17.18-19.15,17.18C148.75,51.29,134,45,134,34.11s8.57-25.59,19.14-25.59S172.31,23.27,172.31,34.11Z"/><path class="cls-6" d="M150.86,17.22a14.28,14.28,0,0,0,12.63,5.91V36.51l-10,5.2-10.69-5.49V24S149.59,22.43,150.86,17.22Z"/><path class="cls-3" d="M138.91,52.75l10.54-4.84V42.42l3.71,1.69,3.19-1.69v5.7l11.28,4.52A4.71,4.71,0,0,1,170.57,57v3.62H135.71V57.2A4.69,4.69,0,0,1,138.91,52.75Z"/><rect class="cls-4" x="4.11" y="64.52" width="56.34" height="56.34"/><path class="cls-3" d="M51.42,94.36c0,10.85-15,17.18-19.14,17.18-4.42,0-19.15-6.33-19.15-17.18S21.7,68.77,32.28,68.77,51.42,83.52,51.42,94.36Z"/><path class="cls-7" d="M30,77.47A14.27,14.27,0,0,0,42.6,83.38V96.75l-10,5.21L22,96.47V84.23S28.71,82.68,30,77.47Z"/><path class="cls-5" d="M18,113l10.54-4.84v-5.49l3.71,1.69,3.19-1.69v5.7l11.28,4.52a4.69,4.69,0,0,1,2.94,4.35v3.62H14.83v-3.41A4.69,4.69,0,0,1,18,113Z"/><rect class="cls-3" x="124.97" y="64.52" width="56.34" height="56.34"/><rect class="cls-3" x="4.11" y="124.95" width="56.34" height="56.34"/><rect class="cls-8" x="64.55" y="124.95" width="56.34" height="56.34"/><path class="cls-4" d="M111.87,154.79c0,10.85-15,17.18-19.15,17.18-4.41,0-19.15-6.33-19.15-17.18s8.58-25.59,19.15-25.59S111.87,144,111.87,154.79Z"/><path class="cls-9" d="M90.42,137.9a14.28,14.28,0,0,0,12.63,5.91v13.38l-10,5.2-10.7-5.49V144.66S89.15,143.11,90.42,137.9Z"/><path class="cls-10" d="M78.47,173.43,89,168.59V163.1l3.71,1.69,3.19-1.69v5.7l11.28,4.52a4.7,4.7,0,0,1,2.94,4.35v3.62H75.27v-3.41A4.69,4.69,0,0,1,78.47,173.43Z"/><rect class="cls-4" x="124.99" y="124.95" width="56.34" height="56.34"/><path class="cls-5" d="M137.13,174.16l11.33-4-.12-3.92,2.34.81c3.1,1.16,4.61.4,6.72-.33l1.53-.67,0,4.39,11.76,3.66c2.17,1.21,2.63.86,3.44,3.94l.85,3.29H132.52l.86-3.1C134.26,175.89,134.06,175.52,137.13,174.16Z"/><g id="Rounded_Rectangle_1" data-name="Rounded Rectangle 1"><path class="cls-11" d="M79.51,115.66a2.83,2.83,0,0,1-2.72-1.85l-6.6-19.53a2.92,2.92,0,0,1,2-3.62L103.57,80a3.38,3.38,0,0,1,1-.17,2.81,2.81,0,0,1,2.71,1.86l6.61,19.52a2.92,2.92,0,0,1-2,3.62L80.54,115.49a3,3,0,0,1-1,.17Z"/><path class="cls-11" d="M104.61,80.88A1.77,1.77,0,0,1,106.34,82L113,101.56a1.88,1.88,0,0,1-1.31,2.3L80.21,114.51a2.19,2.19,0,0,1-.7.12,1.79,1.79,0,0,1-1.74-1.15L71.17,94a1.88,1.88,0,0,1,1.31-2.31L103.91,81a2.13,2.13,0,0,1,.7-.11m0-2.08a4.33,4.33,0,0,0-1.37.23L71.81,89.68a4,4,0,0,0-2.6,4.93l6.6,19.53a3.86,3.86,0,0,0,3.7,2.56,4.22,4.22,0,0,0,1.36-.23l31.43-10.65a4,4,0,0,0,2.61-4.93l-6.6-19.53A3.87,3.87,0,0,0,104.61,78.8Z"/><path class="cls-12" d="M81,105.54a2.83,2.83,0,0,1-2.72-1.86l-6.6-19.53a2.91,2.91,0,0,1,2-3.61L105.1,69.89a3,3,0,0,1,1-.18,2.83,2.83,0,0,1,2.72,1.86l6.6,19.53a2.92,2.92,0,0,1-2,3.62L82.06,105.37a3.27,3.27,0,0,1-1,.17Z"/><path class="cls-12" d="M106.13,70.75a1.77,1.77,0,0,1,1.73,1.15l6.61,19.53a1.88,1.88,0,0,1-1.31,2.3L81.73,104.39a2.43,2.43,0,0,1-.7.11,1.8,1.8,0,0,1-1.74-1.15l-6.6-19.53A1.88,1.88,0,0,1,74,81.52l31.43-10.65a2.15,2.15,0,0,1,.7-.12m0-2.07a4.32,4.32,0,0,0-1.37.22L73.33,79.56a3.94,3.94,0,0,0-2.6,4.93L77.33,104a3.85,3.85,0,0,0,3.7,2.56,4.32,4.32,0,0,0,1.37-.22L113.83,95.7a4,4,0,0,0,2.6-4.93l-6.6-19.53A3.87,3.87,0,0,0,106.13,68.68Z"/><path class="cls-13" d="M72.67,106.91a2.82,2.82,0,0,1-2.35-2.31l-3-20.39A2.9,2.9,0,0,1,69.86,81l32.82-4.91a3.36,3.36,0,0,1,1,0,2.81,2.81,0,0,1,2.34,2.31l3,20.39a2.91,2.91,0,0,1-2.56,3.21l-32.83,4.9a3,3,0,0,1-1,0Z"/><path class="cls-13" d="M103.54,77.13a1.77,1.77,0,0,1,1.5,1.44l3,20.39a1.9,1.9,0,0,1-1.7,2l-32.82,4.9a2.11,2.11,0,0,1-.71,0,1.79,1.79,0,0,1-1.5-1.44l-3-20.39A1.87,1.87,0,0,1,70,82l32.82-4.9a2.1,2.1,0,0,1,.71,0m.37-2a4.26,4.26,0,0,0-1.38,0L69.7,80a3.94,3.94,0,0,0-3.43,4.39l3,20.39a3.87,3.87,0,0,0,3.18,3.18,4.32,4.32,0,0,0,1.39,0l32.82-4.9a4,4,0,0,0,3.44-4.39l-3-20.39A3.86,3.86,0,0,0,103.91,75.09Z"/><path class="cls-14" d="M81.75,110.06a2.84,2.84,0,0,1-2.37-2.29L76.15,87.41a2.92,2.92,0,0,1,2.53-3.24l32.77-5.23a3.36,3.36,0,0,1,1,0,2.83,2.83,0,0,1,2.37,2.28l3.23,20.36a2.91,2.91,0,0,1-2.53,3.24L82.8,110.06a3.36,3.36,0,0,1-1,0Z"/><path class="cls-14" d="M112.33,80a1.76,1.76,0,0,1,1.51,1.42l3.24,20.36a1.9,1.9,0,0,1-1.67,2.06L82.63,109a2.11,2.11,0,0,1-.71,0,1.78,1.78,0,0,1-1.51-1.42L77.17,87.25a1.88,1.88,0,0,1,1.68-2L111.62,80a2.12,2.12,0,0,1,.71,0m.35-2a4.63,4.63,0,0,0-1.39,0L78.52,83.15a3.94,3.94,0,0,0-3.39,4.42l3.23,20.36a3.88,3.88,0,0,0,3.22,3.15,4.26,4.26,0,0,0,1.38,0l32.77-5.23a4,4,0,0,0,3.4-4.42l-3.24-20.36A3.86,3.86,0,0,0,112.68,77.92Z"/></g><g id="Rounded_Rectangle_1_1_1" data-name="Rounded Rectangle 1 1 1"><path class="cls-15" d="M80.16,110.9a2.81,2.81,0,0,1-2.71-1.85l-6.6-19.53a2.91,2.91,0,0,1,2-3.62l31.43-10.65a3.38,3.38,0,0,1,1-.17A2.81,2.81,0,0,1,108,76.93l6.6,19.53a2.91,2.91,0,0,1-2,3.62L81.2,110.73a3.38,3.38,0,0,1-1,.17Z"/><path class="cls-2" d="M105.27,76.11A1.78,1.78,0,0,1,107,77.27l6.6,19.53a1.88,1.88,0,0,1-1.3,2.3L80.86,109.75a2.15,2.15,0,0,1-.7.12,1.78,1.78,0,0,1-1.73-1.16l-6.6-19.52a1.88,1.88,0,0,1,1.3-2.31l31.43-10.65a2.25,2.25,0,0,1,.71-.12m0-2.07a4.24,4.24,0,0,0-1.37.23L72.47,84.92a4,4,0,0,0-2.61,4.93l6.61,19.53a3.85,3.85,0,0,0,3.69,2.56,4.24,4.24,0,0,0,1.37-.23L113,101.06a4,4,0,0,0,2.61-4.93L109,76.6A3.85,3.85,0,0,0,105.27,74Z"/></g><g id="IRMA"><g class="cls-16"><rect class="cls-2" x="82.81" y="86.7" width="1.94" height="10.25"/><path class="cls-2" d="M87,86.7h3.55a3.58,3.58,0,0,1,2.56.92,3,3,0,0,1,1,2.28,2.94,2.94,0,0,1-.53,1.74,3.32,3.32,0,0,1-1.47,1.15L94.48,97H92.34l-2.08-3.87H88.94V97H87V86.7Zm3.55,1.69H88.94v3h1.61A1.49,1.49,0,0,0,91.66,91a1.43,1.43,0,0,0,.42-1.08,1.46,1.46,0,0,0-.42-1.08A1.5,1.5,0,0,0,90.55,88.39Z"/><path class="cls-2" d="M101.57,94.23H100L97.9,90.58V97H96V86.7h1.72l3.08,5.46,3.09-5.46h1.71V97h-1.94V90.59Z"/><path class="cls-2" d="M113.92,97l-.69-2.18h-3.67L108.87,97h-2.1l3.64-10.25h2L116,97Zm-2.52-8L110,93.26h2.72Z"/></g></g><text class="cls-17" transform="translate(135.34 97.04)">me<tspan class="cls-18" x="21.5" y="0">e</tspan><tspan x="29.69" y="0">t</tspan></text><path class="cls-3" d="M153.39,134.22a9,9,0,0,0-2.7.42c-2,.56-4.62,1.4-7,.84a6.2,6.2,0,0,0,.9,4.14,14,14,0,0,0-1.92,7.14v6.52h21.48v-6.52c0-6.93-4.8-12.54-10.74-12.54Z"/><path class="cls-3" d="M153.39,134.22a9,9,0,0,0-2.7.42c-2,.56-4.62,1.4-7,.84a6.7,6.7,0,0,0,.36,3.08c2.28.36,4.74-.49,6.66-1,6.84-2,13.44,3.93,13.44,12.13v-3c0-6.93-4.8-12.54-10.74-12.54Z"/><path class="cls-6" d="M165.27,153.46a2.17,2.17,0,0,0-1.5-1.91l-.66-.21a2.54,2.54,0,0,1-1.62-2.46v-2.59a2.3,2.3,0,0,0-1.5-2.19,15.81,15.81,0,0,1-6.6,1.3,15.54,15.54,0,0,1-6.54-1.3,2.17,2.17,0,0,0-1.5,2.19v3.14a1.87,1.87,0,0,1-1.74,2,2,2,0,0,0-2,1.85,2.19,2.19,0,0,0,1.92,2.66h.12c.72,5.47,4.92,9.57,9.78,9.57s9.06-4.1,9.78-9.57h.12a2.26,2.26,0,0,0,2-2.46Z"/><rect class="cls-8" x="4.09" y="4.09" width="56.34" height="56.34"/><path class="cls-4" d="M16.22,53.3l11.33-4-.12-3.92,2.34.8c3.11,1.17,4.62.41,6.73-.32L38,45.15l0,4.39L49.82,53.2c2.17,1.21,2.62.86,3.44,3.94l.84,3.29H11.61l.87-3.1C13.36,55,13.16,54.66,16.22,53.3Z"/><path class="cls-10" d="M32.45,13.36a9.06,9.06,0,0,0-2.7.43c-2,.57-4.61,1.42-7,.87a6.22,6.22,0,0,0,.92,4.13A14,14,0,0,0,21.76,26l0,6.51,21.48-.09,0-6.51c0-6.94-4.85-12.53-10.79-12.5Z"/><path class="cls-10" d="M32.49,13.36a9,9,0,0,0-2.7.42c-2,.56-4.62,1.4-7,.84a6.7,6.7,0,0,0,.36,3.08c2.28.35,4.74-.49,6.66-1,6.84-2,13.44,3.93,13.44,12.13v-3c0-6.94-4.8-12.54-10.74-12.54Z"/><path class="cls-19" d="M44.37,32.6a2.17,2.17,0,0,0-1.5-1.91l-.66-.21A2.54,2.54,0,0,1,40.59,28V25.43a2.3,2.3,0,0,0-1.5-2.19,15.81,15.81,0,0,1-6.6,1.3A15.54,15.54,0,0,1,26,23.24a2.16,2.16,0,0,0-1.5,2.19v3.14a1.87,1.87,0,0,1-1.74,2,2,2,0,0,0-2,1.85,2.19,2.19,0,0,0,1.92,2.66h.12c.72,5.47,4.92,9.57,9.78,9.57s9.06-4.1,9.78-9.57h.12a2.26,2.26,0,0,0,2-2.46Z"/><path class="cls-2" d="M93.51,19.22c-8.73,0-15.63,5.1-15.63,11.39,0,3.56,2.13,6.74,5.69,8.82.81.48.9,4-3.63,6.15,0,0,6.41,1,10.47-4.13a18.38,18.38,0,0,0,3.1.47c8.74,0,14-5,14-11.31s-5.31-11.39-14-11.39Z"/><path class="cls-2" d="M48.54,144a2,2,0,0,0-2,.08l-6.08,3.88v-.16A4.8,4.8,0,0,0,35.75,143H19.82A4.84,4.84,0,0,0,15,147.78v10.68a4.84,4.84,0,0,0,4.79,4.82H35.75a4.81,4.81,0,0,0,4.75-4.82v-.16l6,3.88a2.11,2.11,0,0,0,1.06.28,1.78,1.78,0,0,0,.9-.24,1.88,1.88,0,0,0,1-1.69V145.66a2,2,0,0,0-1-1.68Z"/></g></g></svg>